<svg width="106" height="106" viewBox="0 0 106 106" fill="none" xmlns="http://www.w3.org/2000/svg">
<g id="Frame 64">
<path id="Star 1" d="M46.7425 44.8885L53.4067 21.1506L60.071 44.8885C60.3359 45.8323 61.0735 46.5698 62.0173 46.8348L85.7552 53.499L62.0173 60.1633C61.0735 60.4282 60.3359 61.1658 60.071 62.1096L53.4067 85.8475L46.7425 62.1096C46.4775 61.1658 45.74 60.4282 44.7962 60.1633L21.0583 53.499L44.7962 46.8348C45.74 46.5698 46.4775 45.8323 46.7425 44.8885Z" stroke="#343C96" stroke-width="2.96304"/>
<path id="Star 2" d="M43.4063 52.0711L30.9436 30.9436L52.0711 43.4063C52.9522 43.926 54.046 43.926 54.9271 43.4063L76.0546 30.9436L63.592 52.0712C63.0723 52.9522 63.0723 54.0461 63.592 54.9271L76.0546 76.0547L54.9271 63.592C54.046 63.0723 52.9522 63.0723 52.0711 63.592L30.9436 76.0547L43.4063 54.9271C43.926 54.0461 43.926 52.9522 43.4063 52.0711Z" fill="white" stroke="#343C96" stroke-width="2.96304"/>
<circle id="Ellipse 31" cx="53.4069" cy="53.4991" r="4.08166" stroke="#343C96" stroke-width="2.96304"/>
</g>
</svg>
