<svg width="36" height="36" viewBox="0 0 36 36" fill="none" xmlns="http://www.w3.org/2000/svg">
<g id="Facebook" clip-path="url(#clip0_185_631)">
<g id="Facebook_2">
<circle id="Ellipse 30" cx="18" cy="18" r="18" fill="#343C96"/>
<g id="Group 60">
<path id="Vector" d="M15.8596 22.7504C15.7674 21.5514 15.7674 20.3525 15.6751 19.0613C15.6751 18.4157 15.3985 17.9545 14.6606 17.9545C14.1995 17.9545 13.7384 18.0468 13.6461 17.4012C13.5539 16.5711 13.3694 15.6488 13.6461 14.8188C13.6461 14.7266 14.015 14.5421 14.1995 14.5421C15.5829 14.8188 15.8596 14.081 15.8596 12.9742C15.8596 10.023 18.3498 8.45507 21.5777 8.63952C22.5 8.73175 22.5 9.46958 22.5 10.1152C22.4078 10.7608 22.7767 11.6831 21.5777 11.6831C20.5632 11.5908 19.8254 11.9597 19.8254 13.1587C19.8254 13.9888 19.9176 14.6343 20.9321 14.7266C22.4078 14.8188 22.1311 15.8333 22.1311 16.8478C22.2233 17.9546 21.6699 18.3234 20.6554 18.3234C19.6409 18.3234 19.4565 18.8768 19.4565 19.7991C19.4565 21.8281 19.4565 23.7649 19.3643 25.7939C19.272 27.0851 18.9953 27.1773 17.243 27.0851C16.0441 27.0851 15.8596 26.5317 15.9518 25.5172C15.7674 24.6872 15.7674 23.7649 15.8596 22.7504Z" fill="white"/>
</g>
</g>
</g>
<defs>
<clipPath id="clip0_185_631">
<rect width="36" height="36" fill="white"/>
</clipPath>
</defs>
</svg>
